<?xml version="1.0" encoding="UTF-8" standalone="no"?>
<svg
   version="1.1"
   width="45"
   height="45"
   id="svg69"
   sodipodi:docname="bb.svg"
   inkscape:version="1.4.3 (0d15f75, 2025-12-25)"
   xmlns:inkscape="http://www.inkscape.org/namespaces/inkscape"
   xmlns:sodipodi="http://sodipodi.sourceforge.net/DTD/sodipodi-0.dtd"
   xmlns="http://www.w3.org/2000/svg"
   xmlns:svg="http://www.w3.org/2000/svg">
  <sodipodi:namedview
     id="namedview1"
     pagecolor="#808080"
     bordercolor="#000000"
     borderopacity="0.25"
     inkscape:showpageshadow="2"
     inkscape:pageopacity="0.0"
     inkscape:pagecheckerboard="0"
     inkscape:deskcolor="#d1d1d1"
     inkscape:zoom="17.933333"
     inkscape:cx="22.360595"
     inkscape:cy="22.5"
     inkscape:window-width="1920"
     inkscape:window-height="1009"
     inkscape:window-x="-8"
     inkscape:window-y="-8"
     inkscape:window-maximized="1"
     inkscape:current-layer="svg69" />
  <defs
     id="defs69" />
  <g
     style="opacity:1;fill:none;fill-opacity:1;fill-rule:evenodd;stroke:#000000;stroke-width:1.5;stroke-linecap:round;stroke-linejoin:round;stroke-miterlimit:4;stroke-dasharray:none;stroke-opacity:1"
     id="g20">
    <path
       id="path20"
       style="fill:none;stroke:#000000;stroke-linejoin:round;stroke-opacity:1;stroke-width:3;stroke-dasharray:none;stroke-linecap:round"
       d="M 22.330078 5.5058594 A 2.5 2.5 0 0 0 20 8 A 2.5 2.5 0 0 0 22.5 10.5 A 2.5 2.5 0 0 0 25 8 A 2.5 2.5 0 0 0 22.330078 5.5058594 z M 22.5 10.5 C 11.5 14.5 12 24.5 17.5 26 C 17.5 26 15 27.5 15 30 C 15 30 14.5 30.5 15 32 C 17.5 34.5 27.5 34.5 30 32 C 30.5 30.5 30 30 30 30 C 30 27.5 27.5 26 27.5 26 C 33 24.5 33.5 14.5 22.5 10.5 z M 22.5 34 C 19.11 36.43 12.39 35.03 9 36 C 9 36 7.354 36.06 6 38 C 6.677 38.97 7.646 38.99 9 38.5 C 12.39 37.53 19.11 38.96 22.5 37.5 C 25.89 38.96 32.61 37.53 36 38.5 C 37.35 38.99 38.32 38.97 39 38 C 37.65 36.54 36 36 36 36 C 32.61 35.03 25.89 36.43 22.5 34 z " />
  </g>
  <g
     style="display:inline;opacity:1;fill:none;fill-opacity:1;fill-rule:evenodd;stroke:#000000;stroke-width:1.5;stroke-linecap:round;stroke-linejoin:round;stroke-miterlimit:4;stroke-dasharray:none;stroke-opacity:1"
     id="g4">
    <g
       style="fill:#ffffff;stroke:#000000;stroke-linecap:round;stroke-linejoin:round"
       id="g3">
      <path
         d="m 9,36 c 3.39,-0.97 10.11,0.43 13.5,-2 3.39,2.43 10.11,1.03 13.5,2 0,0 1.65,0.54 3,2 -0.68,0.97 -1.65,0.99 -3,0.5 -3.39,-0.97 -10.11,0.46 -13.5,-1 C 19.11,38.96 12.39,37.53 9,38.5 7.646,38.99 6.677,38.97 6,38 7.354,36.06 9,36 9,36 Z"
         id="path1"
         style="fill:#000000;stroke:#ffffff;stroke-linejoin:round;stroke-linecap:round" />
      <path
         d="m 15,32 c 2.5,2.5 12.5,2.5 15,0 0.5,-1.5 0,-2 0,-2 0,-2.5 -2.5,-4 -2.5,-4 5.5,-1.5 6,-11.5 -5,-15.5 -11,4 -10.5,14 -5,15.5 0,0 -2.5,1.5 -2.5,4 0,0 -0.5,0.5 0,2 z"
         id="path2"
         style="fill:#000000;stroke:#ffffff;stroke-linejoin:round;stroke-linecap:round" />
      <path
         d="m 25,8 a 2.5,2.5 0 1 1 -5,0 2.5,2.5 0 1 1 5,0 z"
         id="path3"
         style="fill:#000000;stroke:#ffffff;stroke-linejoin:round;stroke-linecap:round" />
    </g>
    <path
       d="m 17.5,26 h 10 M 15,30 H 30 M 22.5,15.5 v 5 M 20,18 h 5"
       style="fill:none;stroke:#ffffff;stroke-linejoin:round;stroke-linecap:round"
       id="path4" />
  </g>
</svg>
